<svg width="32" height="32" viewBox="0 0 32 32" fill="none" xmlns="http://www.w3.org/2000/svg">
<path d="M20.8456 8C18.8848 8 17.2093 9.28244 16.2887 10.1666C15.3682 9.28244 13.6964 8 11.7365 8C8.35842 8 6 10.1606 6 13.2534C6 16.6612 8.92908 18.8638 11.7627 20.9943C13.1005 22.0012 14.4851 23.0416 15.5469 24.1953C15.7256 24.3884 15.9875 24.5 16.2625 24.5H16.3168C16.5928 24.5 16.8538 24.3876 17.0315 24.1953C18.0952 23.0416 19.4788 22.0004 20.8175 20.9943C23.6502 18.8647 26.5812 16.662 26.5812 13.2534C26.5812 10.1606 24.2228 8 20.8456 8Z" fill="#111111"/>
</svg>
