<svg width="52" height="32" viewBox="0 0 52 32" fill="none" xmlns="http://www.w3.org/2000/svg">
<g id="Group 51">
<path id="Vector" d="M33.5848 3.42096H18.1842V28.5747H33.5848V3.42096Z" fill="#FF5F00"/>
<path id="Vector_2" d="M19.7705 16.0017C19.7686 13.5796 20.3177 11.1888 21.3762 9.01027C22.4347 6.83172 23.9748 4.92247 25.8801 3.42703C23.5203 1.57248 20.6864 0.419242 17.7021 0.0991266C14.7179 -0.220989 11.7038 0.304932 9.00436 1.61678C6.3049 2.92863 4.02897 4.97348 2.43668 7.51763C0.844396 10.0618 0 13.0026 0 16.0039C0 19.0053 0.844396 21.9461 2.43668 24.4902C4.02897 27.0344 6.3049 29.0792 9.00436 30.3911C11.7038 31.7029 14.7179 32.2288 17.7021 31.9087C20.6864 31.5886 23.5203 30.4354 25.8801 28.5808C23.9742 27.0849 22.4337 25.1749 21.3752 22.9956C20.3167 20.8162 19.7679 18.4245 19.7705 16.0017Z" fill="#EB001B"/>
<path id="Vector_3" d="M51.7626 16.0001C51.7625 19.0017 50.9179 21.9427 49.3254 24.4869C47.7328 27.0311 45.4565 29.076 42.7567 30.3876C40.0569 31.6993 37.0425 32.2249 34.0581 31.9043C31.0737 31.5837 28.2398 30.4299 25.8801 28.5748C27.7847 27.078 29.3244 25.1682 30.3832 22.9896C31.4419 20.8109 31.9921 18.4202 31.9921 15.9979C31.9921 13.5756 31.4419 11.1849 30.3832 9.00622C29.3244 6.82755 27.7847 4.91778 25.8801 3.42101C28.2398 1.56588 31.0737 0.412078 34.0581 0.0915025C37.0425 -0.229073 40.0569 0.29651 42.7567 1.60817C45.4565 2.91984 47.7328 4.96465 49.3254 7.50889C50.9179 10.0531 51.7625 12.9941 51.7626 15.9957V16.0001Z" fill="#F79E1B"/>
</g>
</svg>
