<svg width="98" height="18" viewBox="0 0 98 18" fill="none" xmlns="http://www.w3.org/2000/svg">
<path d="M8.53834 1.10996C8.70914 0.699317 9.29086 0.699318 9.46166 1.10996L11.2632 5.4415C11.3353 5.61462 11.4981 5.7329 11.685 5.74789L16.3612 6.12278C16.8045 6.15832 16.9843 6.71158 16.6465 7.00091L13.0837 10.0528C12.9413 10.1748 12.8791 10.3662 12.9226 10.5486L14.0111 15.1118C14.1143 15.5444 13.6437 15.8864 13.2642 15.6545L9.26063 13.2092C9.10062 13.1115 8.89938 13.1115 8.73937 13.2092L4.73584 15.6545C4.35629 15.8864 3.88567 15.5444 3.98886 15.1118L5.07736 10.5486C5.12086 10.3662 5.05868 10.1748 4.91628 10.0528L1.35347 7.00091C1.0157 6.71157 1.19546 6.15832 1.63879 6.12278L6.31505 5.74789C6.50194 5.7329 6.66475 5.61462 6.73675 5.4415L8.53834 1.10996Z" fill="#E3E3E3"/>
<path d="M28.5383 1.10996C28.7091 0.699317 29.2909 0.699318 29.4617 1.10996L31.2632 5.4415C31.3353 5.61462 31.4981 5.7329 31.685 5.74789L36.3612 6.12278C36.8045 6.15832 36.9843 6.71158 36.6465 7.00091L33.0837 10.0528C32.9413 10.1748 32.8791 10.3662 32.9226 10.5486L34.0111 15.1118C34.1143 15.5444 33.6437 15.8864 33.2642 15.6545L29.2606 13.2092C29.1006 13.1115 28.8994 13.1115 28.7394 13.2092L24.7358 15.6545C24.3563 15.8864 23.8857 15.5444 23.9889 15.1118L25.0774 10.5486C25.1209 10.3662 25.0587 10.1748 24.9163 10.0528L21.3535 7.00091C21.0157 6.71157 21.1955 6.15832 21.6388 6.12278L26.315 5.74789C26.5019 5.7329 26.6647 5.61462 26.7368 5.4415L28.5383 1.10996Z" fill="#E3E3E3"/>
<path d="M48.5383 1.10996C48.7091 0.699317 49.2909 0.699318 49.4617 1.10996L51.2632 5.4415C51.3353 5.61462 51.4981 5.7329 51.685 5.74789L56.3612 6.12278C56.8045 6.15832 56.9843 6.71158 56.6465 7.00091L53.0837 10.0528C52.9413 10.1748 52.8791 10.3662 52.9226 10.5486L54.0111 15.1118C54.1143 15.5444 53.6437 15.8864 53.2642 15.6545L49.2606 13.2092C49.1006 13.1115 48.8994 13.1115 48.7394 13.2092L44.7358 15.6545C44.3563 15.8864 43.8857 15.5444 43.9889 15.1118L45.0774 10.5486C45.1209 10.3662 45.0587 10.1748 44.9163 10.0528L41.3535 7.00091C41.0157 6.71157 41.1955 6.15832 41.6388 6.12278L46.315 5.74789C46.5019 5.7329 46.6647 5.61462 46.7368 5.4415L48.5383 1.10996Z" fill="#E3E3E3"/>
<path d="M68.5383 1.10996C68.7091 0.699317 69.2909 0.699318 69.4617 1.10996L71.2632 5.4415C71.3353 5.61462 71.4981 5.7329 71.685 5.74789L76.3612 6.12278C76.8045 6.15832 76.9843 6.71158 76.6465 7.00091L73.0837 10.0528C72.9413 10.1748 72.8791 10.3662 72.9226 10.5486L74.0111 15.1118C74.1143 15.5444 73.6437 15.8864 73.2642 15.6545L69.2606 13.2092C69.1006 13.1115 68.8994 13.1115 68.7394 13.2092L64.7358 15.6545C64.3563 15.8864 63.8857 15.5444 63.9889 15.1118L65.0774 10.5486C65.1209 10.3662 65.0587 10.1748 64.9163 10.0528L61.3535 7.00091C61.0157 6.71157 61.1955 6.15832 61.6388 6.12278L66.315 5.74789C66.5019 5.7329 66.6647 5.61462 66.7368 5.4415L68.5383 1.10996Z" fill="#E3E3E3"/>
<path d="M88.5383 1.10996C88.7091 0.699317 89.2909 0.699318 89.4617 1.10996L91.2632 5.4415C91.3353 5.61462 91.4981 5.7329 91.685 5.74789L96.3612 6.12278C96.8045 6.15832 96.9843 6.71158 96.6465 7.00091L93.0837 10.0528C92.9413 10.1748 92.8791 10.3662 92.9226 10.5486L94.0111 15.1118C94.1143 15.5444 93.6437 15.8864 93.2642 15.6545L89.2606 13.2092C89.1006 13.1115 88.8994 13.1115 88.7394 13.2092L84.7358 15.6545C84.3563 15.8864 83.8857 15.5444 83.9889 15.1118L85.0774 10.5486C85.1209 10.3662 85.0587 10.1748 84.9163 10.0528L81.3535 7.00091C81.0157 6.71157 81.1955 6.15832 81.6388 6.12278L86.315 5.74789C86.5019 5.7329 86.6647 5.61462 86.7368 5.4415L88.5383 1.10996Z" fill="#E3E3E3"/>
</svg>
