<svg width="26" height="20" viewBox="0 0 26 20" fill="none" xmlns="http://www.w3.org/2000/svg">
<path d="M25.7108 8.21436V8.92864C25.7108 9.52038 25.2311 10.0001 24.6394 10.0001H24.2823L23.1165 18.1602C22.9657 19.2159 22.0616 20 20.9952 20H4.7123C3.64592 20 2.74182 19.2159 2.59097 18.1602L1.42527 10.0001H1.06813C0.476389 10.0001 -0.0032959 9.52038 -0.0032959 8.92864V8.21436C-0.0032959 7.62262 0.476389 7.14294 1.06813 7.14294H4.0744L8.84134 0.588471C9.30539 -0.0495607 10.1988 -0.190676 10.8369 0.273384C11.475 0.737443 11.616 1.63088 11.152 2.26895L7.60724 7.14294H18.1003L14.5555 2.26891C14.0915 1.63088 14.2326 0.737399 14.8707 0.273339C15.5087 -0.190721 16.4022 -0.0496499 16.8662 0.588426L21.6331 7.14294H24.6394C25.2311 7.14294 25.7108 7.62262 25.7108 8.21436ZM13.9252 16.0715V11.0715C13.9252 10.4797 13.4455 10.0001 12.8538 10.0001C12.262 10.0001 11.7823 10.4797 11.7823 11.0715V16.0715C11.7823 16.6632 12.262 17.1429 12.8538 17.1429C13.4455 17.1429 13.9252 16.6632 13.9252 16.0715ZM18.9252 16.0715V11.0715C18.9252 10.4797 18.4455 10.0001 17.8537 10.0001C17.262 10.0001 16.7823 10.4797 16.7823 11.0715V16.0715C16.7823 16.6632 17.262 17.1429 17.8537 17.1429C18.4455 17.1429 18.9252 16.6632 18.9252 16.0715ZM8.92522 16.0715V11.0715C8.92522 10.4797 8.44553 10.0001 7.8538 10.0001C7.26206 10.0001 6.78237 10.4797 6.78237 11.0715V16.0715C6.78237 16.6632 7.26206 17.1429 7.8538 17.1429C8.44553 17.1429 8.92522 16.6632 8.92522 16.0715Z" fill="#111111"/>
</svg>
