<svg width="32" height="32" viewBox="0 0 32 32" fill="none" xmlns="http://www.w3.org/2000/svg">
<g id="Group 22">
<g id="Group 97">
<path id="Vector" d="M8.3512 14.2051V12.7133C8.3512 8.99859 11.8496 6 16.1833 6C20.5171 6 24.0155 8.99859 24.0155 12.7133V14.2051" stroke="#111111" stroke-width="2.17559" stroke-linecap="round" stroke-linejoin="round"/>
<path id="Vector_2" d="M24.3091 21.0079V23.0666C24.3091 25.1254 22.3597 26.7962 19.9579 26.7962H16.4769" stroke="#111111" stroke-width="2.17559" stroke-linecap="round" stroke-linejoin="round"/>
<path id="Vector_3" d="M16.4769 27.0651C17.6784 27.0651 18.6525 26.2302 18.6525 25.2003C18.6525 24.1704 17.6784 23.3355 16.4769 23.3355C15.2753 23.3355 14.3013 24.1704 14.3013 25.2003C14.3013 26.2302 15.2753 27.0651 16.4769 27.0651Z" fill="#111111" stroke="#111111" stroke-width="1.61137" stroke-linecap="round" stroke-linejoin="round"/>
<g id="Group">
<path id="Vector_4" d="M28.3667 18.3077C28.3667 17.2778 27.3926 16.4429 26.1911 16.4429C24.9895 16.4429 24.0155 17.2778 24.0155 18.3077V22.0373C24.0155 23.0672 24.9895 23.9021 26.1911 23.9021C27.3926 23.9021 28.3667 23.0672 28.3667 22.0373V18.3077Z" fill="#111111" stroke="#111111" stroke-width="1.61137" stroke-miterlimit="10"/>
<path id="Vector_5" d="M8.35119 18.3077C8.35119 17.2778 7.37714 16.4429 6.17559 16.4429C4.97405 16.4429 4 17.2778 4 18.3077V22.0373C4 23.0672 4.97405 23.9021 6.17559 23.9021C7.37714 23.9021 8.35119 23.0672 8.35119 22.0373V18.3077Z" fill="#111111" stroke="#111111" stroke-width="1.61137" stroke-miterlimit="10"/>
</g>
</g>
</g>
</svg>
