<svg width="66" height="13" viewBox="0 0 66 13" fill="none" xmlns="http://www.w3.org/2000/svg">
<path d="M5.69223 1.18993C5.80609 0.916163 6.19391 0.916163 6.30777 1.18993L7.50883 4.07762C7.55683 4.19303 7.66537 4.27189 7.78997 4.28188L10.9075 4.5318C11.203 4.5555 11.3229 4.92433 11.0977 5.11722L8.72248 7.15184C8.62755 7.23316 8.58609 7.36075 8.61509 7.48234L9.34076 10.5245C9.40955 10.8129 9.0958 11.0409 8.84277 10.8863L6.17375 9.25608C6.06708 9.19092 5.93292 9.19092 5.82625 9.25608L3.15723 10.8863C2.9042 11.0409 2.59045 10.8129 2.65924 10.5245L3.38491 7.48234C3.41391 7.36075 3.37245 7.23316 3.27752 7.15184L0.902313 5.11722C0.677134 4.92433 0.796976 4.5555 1.09253 4.5318L4.21003 4.28188C4.33463 4.27189 4.44317 4.19303 4.49117 4.07762L5.69223 1.18993Z" fill="#FDD500"/>
<path d="M19.0255 1.18993C19.1394 0.916163 19.5272 0.916163 19.6411 1.18993L20.8421 4.07762C20.8901 4.19303 20.9987 4.27189 21.1233 4.28188L24.2408 4.5318C24.5363 4.5555 24.6562 4.92433 24.431 5.11722L22.0558 7.15184C21.9609 7.23316 21.9194 7.36075 21.9484 7.48234L22.6741 10.5245C22.7429 10.8129 22.4291 11.0409 22.1761 10.8863L19.5071 9.25608C19.4004 9.19092 19.2662 9.19092 19.1596 9.25608L16.4905 10.8863C16.2375 11.0409 15.9238 10.8129 15.9926 10.5245L16.7182 7.48234C16.7472 7.36075 16.7058 7.23316 16.6108 7.15184L14.2356 5.11722C14.0104 4.92433 14.1303 4.5555 14.4258 4.5318L17.5433 4.28188C17.6679 4.27189 17.7765 4.19303 17.8245 4.07762L19.0255 1.18993Z" fill="#FDD500"/>
<path d="M32.3589 1.18993C32.4728 0.916163 32.8606 0.916163 32.9745 1.18993L34.1755 4.07762C34.2235 4.19303 34.3321 4.27189 34.4567 4.28188L37.5742 4.5318C37.8697 4.5555 37.9896 4.92433 37.7644 5.11722L35.3892 7.15184C35.2942 7.23316 35.2528 7.36075 35.2818 7.48234L36.0074 10.5245C36.0762 10.8129 35.7625 11.0409 35.5095 10.8863L32.8404 9.25608C32.7338 9.19092 32.5996 9.19092 32.4929 9.25608L29.8239 10.8863C29.5709 11.0409 29.2571 10.8129 29.3259 10.5245L30.0516 7.48234C30.0806 7.36075 30.0391 7.23316 29.9442 7.15184L27.569 5.11722C27.3438 4.92433 27.4637 4.5555 27.7592 4.5318L30.8767 4.28188C31.0013 4.27189 31.1099 4.19303 31.1579 4.07762L32.3589 1.18993Z" fill="#FDD500"/>
<path d="M45.6922 1.18993C45.8061 0.916163 46.1939 0.916163 46.3078 1.18993L47.5088 4.07762C47.5568 4.19303 47.6654 4.27189 47.79 4.28188L50.9075 4.5318C51.203 4.5555 51.3229 4.92433 51.0977 5.11722L48.7225 7.15184C48.6275 7.23316 48.5861 7.36075 48.6151 7.48234L49.3408 10.5245C49.4096 10.8129 49.0958 11.0409 48.8428 10.8863L46.1738 9.25608C46.0671 9.19092 45.9329 9.19092 45.8262 9.25608L43.1572 10.8863C42.9042 11.0409 42.5904 10.8129 42.6592 10.5245L43.3849 7.48234C43.4139 7.36075 43.3725 7.23316 43.2775 7.15184L40.9023 5.11722C40.6771 4.92433 40.797 4.5555 41.0925 4.5318L44.21 4.28188C44.3346 4.27189 44.4432 4.19303 44.4912 4.07762L45.6922 1.18993Z" fill="#FDD500"/>
<path d="M59.0255 1.18993C59.1394 0.916163 59.5272 0.916163 59.6411 1.18993L60.8421 4.07762C60.8901 4.19303 60.9987 4.27189 61.1233 4.28188L64.2408 4.5318C64.5363 4.5555 64.6562 4.92433 64.431 5.11722L62.0558 7.15184C61.9609 7.23316 61.9194 7.36075 61.9484 7.48234L62.6741 10.5245C62.7429 10.8129 62.4291 11.0409 62.1761 10.8863L59.5071 9.25608C59.4004 9.19092 59.2662 9.19092 59.1596 9.25608L56.4905 10.8863C56.2375 11.0409 55.9238 10.8129 55.9926 10.5245L56.7182 7.48234C56.7472 7.36075 56.7058 7.23316 56.6108 7.15184L54.2356 5.11722C54.0104 4.92433 54.1303 4.5555 54.4258 4.5318L57.5433 4.28188C57.6679 4.27189 57.7765 4.19303 57.8245 4.07762L59.0255 1.18993Z" fill="#FDD500"/>
</svg>
