<svg width="20" height="20" viewBox="0 0 20 20" fill="none" xmlns="http://www.w3.org/2000/svg">
<path d="M19.7248 17.2913L15.8306 13.3971C15.6548 13.2214 15.4166 13.1237 15.1666 13.1237H14.53C15.608 11.7449 16.2485 10.0107 16.2485 8.12421C16.2485 3.63636 12.6122 0 8.12433 0C3.63649 0 0.00012207 3.63636 0.00012207 8.12421C0.00012207 12.612 3.63649 16.2484 8.12433 16.2484C10.0109 16.2484 11.7451 15.6079 13.1238 14.5298V15.1665C13.1238 15.4165 13.2215 15.6547 13.3973 15.8305L17.2914 19.7246C17.6586 20.0918 18.2522 20.0918 18.6155 19.7246L19.7208 18.6193C20.088 18.2521 20.088 17.6584 19.7248 17.2913ZM8.12433 13.1237C5.36288 13.1237 3.12482 10.8896 3.12482 8.12421C3.12482 5.36276 5.35897 3.12469 8.12433 3.12469C10.8858 3.12469 13.1238 5.35885 13.1238 8.12421C13.1238 10.8857 10.8897 13.1237 8.12433 13.1237Z" fill="#111111"/>
</svg>
